<svg preserveAspectRatio="none" width="100%" height="100%" overflow="visible" style="display: block;" viewBox="0 0 53.3333 40" fill="none" xmlns="http://www.w3.org/2000/svg">
<g id="Hong Kong (HK)" clip-path="url(#clip0_0_2599)">
<path id="Vector" d="M0 0H53.3333V40H0" fill="var(--fill-0, #EC1B2E)"/>
<path id="a" d="M28.8583 8.5916C22.25 8.1666 19.2167 16.8249 25.4667 20.0249C23.3 18.1583 23.75 15.4166 24.625 13.9916L24.7833 14.0833C23.6333 16.0416 23.85 18.4749 25.7083 19.9999C24.65 18.9749 24.9167 16.7499 26.7167 15.9249C28.5167 15.0999 28.6833 12.6499 28.0833 11.8333C27.2667 10.411 27.525 9.33049 28.8583 8.5916ZM25.6583 13.6666L25.2667 14.2833L25.1167 13.5666L24.4 13.3749L25.05 13.0166L25 12.2749L25.5417 12.7833L26.2333 12.5083L25.925 13.1833L26.3917 13.7499L25.6583 13.6666Z" fill="var(--fill-0, white)"/>
<path id="a_2" d="M38.0394 19.355C36.4015 12.9388 27.2296 12.7295 26.1176 19.6624C27.2234 17.025 29.9699 16.6057 31.5956 16.9975L31.5573 17.1765C29.3394 16.6879 27.0922 17.6459 26.2161 19.8845C26.8638 18.5613 29.0624 18.1273 30.4032 19.5843C31.7441 21.0412 34.1257 20.4427 34.7169 19.6197C35.8172 18.4035 36.9247 18.3152 38.0394 19.355ZM32.224 17.8799L31.5165 17.6979L32.1517 17.3338L32.1125 16.593L32.6542 17.1005L33.3441 16.8237L33.028 17.496L33.5033 18.0688L32.766 17.9841L32.3713 18.6031L32.224 17.8799Z" fill="var(--fill-0, white)"/>
<path id="a_3" d="M30.64 31.4128C36.2361 27.8724 33.6009 19.0847 26.6636 20.1695C29.5137 20.4061 30.7611 22.8887 30.8908 24.5558L30.7088 24.5748C30.4881 22.3145 28.8826 20.4732 26.4828 20.3318C27.9415 20.5389 29.0335 22.4957 28.0622 24.2212C27.0909 25.9467 28.3962 28.0267 29.3616 28.3347C30.8583 29.0053 31.2844 30.0313 30.64 31.4128ZM30.2459 25.4262L30.2003 24.697L30.7429 25.1887L31.4353 24.9225L31.1201 25.5944L31.5965 26.1651L30.8595 26.0722L30.4615 26.7012L30.3142 25.9739L29.6036 25.7898L30.2459 25.4262Z" fill="var(--fill-0, white)"/>
<path id="a_4" d="M16.8858 28.1016C21.9823 32.3297 29.5255 27.108 26.3501 20.8454C27.0058 23.6291 25.0302 25.5827 23.4847 26.2212L23.4105 26.054C25.492 25.1456 26.7469 23.0497 26.1399 20.7236C26.3936 22.1749 24.8701 23.8183 22.9289 23.4277C20.9878 23.0371 19.4129 24.9212 19.4182 25.9346C19.243 27.5652 18.3988 28.2876 16.8858 28.1016ZM22.4577 25.8768L23.137 25.6081L22.8371 26.2761L23.3043 26.8524L22.5678 26.7602L22.1723 27.3896L22.0329 26.66L21.3117 26.4759L21.9579 26.1111L21.9134 25.3783L22.4577 25.8768Z" fill="var(--fill-0, white)"/>
<path id="a_5" d="M15.7847 13.9974C13.3384 20.151 20.6356 25.7114 25.6104 20.7562C23.1655 22.24 20.6971 20.9648 19.6122 19.6923L19.7483 19.57C21.2555 21.2689 23.6367 21.8148 25.6613 20.5186C24.3594 21.2084 22.3257 20.2672 22.0973 18.3004C21.8689 16.3336 19.5903 15.418 18.6282 15.7362C17.0232 16.0734 16.0754 15.4938 15.7847 13.9974ZM19.6225 18.6091L20.0879 19.1721L19.36 19.0933L18.9562 19.7157L18.8163 18.9868L18.0955 18.8051L18.7463 18.4471L18.6985 17.7043L19.2452 18.2061L19.9283 17.9374L19.6225 18.6091Z" fill="var(--fill-0, white)"/>
</g>
<defs>
<clipPath id="clip0_0_2599">
<rect width="53.3333" height="40" fill="white"/>
</clipPath>
</defs>
</svg>
