<svg preserveAspectRatio="none" width="100%" height="100%" overflow="visible" style="display: block;" viewBox="0 0 24 24" fill="none" xmlns="http://www.w3.org/2000/svg">
<g id="icons/local/help">
<path id="Union" fill-rule="evenodd" clip-rule="evenodd" d="M12.0001 2.00006C6.47725 2.00006 2.0001 6.47721 2.0001 12.0001C2.0001 17.5229 6.47725 22.0001 12.0001 22.0001C17.5229 22.0001 22.0001 17.5229 22.0001 12.0001C22.0001 6.47721 17.5229 2.00006 12.0001 2.00006ZM8.5001 8.75006C8.5001 6.67899 10.179 5.00006 12.2501 5.00006C14.3212 5.00006 16.0001 6.67899 16.0001 8.75006C16.0001 10.5643 14.7118 12.0776 13.0001 12.425V13.5001C13.0001 14.0523 12.5524 14.5001 12.0001 14.5001C11.4478 14.5001 11.0001 14.0523 11.0001 13.5001V11.2501L12.2501 10.7001C13.5001 10.2465 14.0001 9.71656 14.0001 8.75006C14.0001 7.78356 13.2166 7.00006 12.2501 7.00006C11.2836 7.00006 10.5001 7.78356 10.5001 8.75006H8.5001ZM10.5001 17.0001C10.5001 16.1716 11.1717 15.5001 12.0001 15.5001C12.8285 15.5001 13.5001 16.1716 13.5001 17.0001C13.5001 17.8285 12.8285 18.5001 12.0001 18.5001C11.1717 18.5001 10.5001 17.8285 10.5001 17.0001Z" fill="var(--fill-0, #2D2D3A)"/>
</g>
</svg>
