<svg preserveAspectRatio="none" width="100%" height="100%" overflow="visible" style="display: block;" viewBox="0 0 24 24" fill="none" xmlns="http://www.w3.org/2000/svg">
<g id="icons/global/globe">
<path id="Union" d="M20.9406 16.6205H16.5746C16.1252 18.9307 15.3226 20.8119 14.3596 22C17.2488 21.2739 19.6244 19.2937 20.9406 16.6205ZM21.5506 15.0693H16.8315C16.9599 14.0792 17.0241 13.0561 17.0241 12C17.0241 10.9109 16.9599 9.88779 16.8315 8.89769H21.5506C21.8395 9.88779 22 10.9109 22 12C22 13.0561 21.8395 14.1122 21.5506 15.0693ZM20.9406 7.37954H16.5746C16.1252 5.06931 15.3226 3.15512 14.3596 2C17.2488 2.69307 19.6244 4.70627 20.9406 7.37954ZM9.67255 2C6.78331 2.69307 4.3756 4.70627 3.05939 7.37954H7.45746C7.9069 5.06931 8.67737 3.15512 9.67255 2ZM7.20064 8.89769H2.44944C2.16051 9.88779 2 10.9109 2 12C2 13.0561 2.16051 14.1122 2.44944 15.0693H7.20064C7.07223 14.0792 7.00803 13.0561 7.00803 12C7.00803 10.9109 7.07223 9.88779 7.20064 8.89769ZM3.05939 16.6205H7.45746C7.9069 18.9307 8.67737 20.8119 9.67255 22C6.78331 21.2739 4.3756 19.2937 3.05939 16.6205ZM15.5152 12C15.5152 13.0891 15.451 14.1122 15.3226 15.0693H8.70947C8.58106 14.1122 8.51685 13.0891 8.51685 12C8.51685 10.9109 8.58106 9.88779 8.70947 8.89769H15.3226C15.451 9.88779 15.5152 10.9109 15.5152 12ZM12.0161 2C13.1396 2 14.2953 3.84818 15.0337 7.37954H8.96629C9.67255 3.84818 10.8283 2 12.0161 2ZM15.0337 16.6205C14.2953 20.1518 13.1396 22 12.0161 22C10.8283 22 9.67255 20.1518 8.96629 16.6205H15.0337Z" fill="var(--fill-0, #2D2D3A)"/>
</g>
</svg>
