<svg preserveAspectRatio="none" width="100%" height="100%" overflow="visible" style="display: block;" viewBox="0 0 24 24" fill="none" xmlns="http://www.w3.org/2000/svg">
<g id="icons/global/search">
<path id="Union" fill-rule="evenodd" clip-rule="evenodd" d="M15 11C15 8.23858 12.7614 6 10 6C7.23858 6 5 8.23858 5 11C5 13.7614 7.23858 16 10 16C12.7614 16 15 13.7614 15 11ZM10 4C6.13401 4 3 7.13401 3 11C3 14.866 6.13401 18 10 18C11.5724 18 13.0236 17.4816 14.1922 16.6064L18.793 21.2071L20.2072 19.7929L15.6064 15.1921C16.4816 14.0236 17 12.5723 17 11C17 7.13401 13.866 4 10 4Z" fill="var(--fill-0, #2D2D3A)"/>
</g>
</svg>
