<svg preserveAspectRatio="none" width="100%" height="100%" overflow="visible" style="display: block;" viewBox="0 0 80 13" fill="none" xmlns="http://www.w3.org/2000/svg">
<g id="Status">
<g id="Battery">
<rect id="Border" opacity="0.35" x="52.5" y="0.5" width="24" height="12" rx="3.8" stroke="var(--stroke-0, black)"/>
<path id="Cap" opacity="0.4" d="M78 4.78113V8.8566C78.8047 8.51143 79.328 7.70847 79.328 6.81886C79.328 5.92926 78.8047 5.1263 78 4.78113" fill="var(--fill-0, black)"/>
<rect id="Capacity" x="54" y="2" width="21" height="9" rx="2.5" fill="var(--fill-0, black)"/>
</g>
<path id="Wifi" fill-rule="evenodd" clip-rule="evenodd" d="M36.2705 3.10398C38.7576 3.10408 41.1496 4.02616 42.9521 5.67964C43.0879 5.8073 43.3048 5.80569 43.4385 5.67603L44.736 4.41257C44.8037 4.34681 44.8414 4.25773 44.8409 4.16505C44.8403 4.07237 44.8015 3.98372 44.733 3.91873C40.002 -0.455983 32.5383 -0.455983 27.8073 3.91873C27.7387 3.98368 27.6999 4.07229 27.6992 4.16497C27.6986 4.25766 27.7363 4.34676 27.8039 4.41257L29.1018 5.67603C29.2354 5.80588 29.4525 5.8075 29.5881 5.67964C31.3909 4.02606 33.7832 3.10397 36.2705 3.10398ZM36.2672 7.32425C37.6245 7.32417 38.9334 7.83591 39.9395 8.76004C40.0756 8.89119 40.2899 8.88835 40.4226 8.75363L41.7099 7.43432C41.7777 7.36512 41.8153 7.27124 41.8143 7.17369C41.8133 7.07614 41.7738 6.98306 41.7047 6.91527C38.6408 4.02442 33.8961 4.02442 30.8323 6.91527C30.7631 6.98306 30.7236 7.07619 30.7227 7.17377C30.7218 7.27135 30.7595 7.36522 30.8274 7.43432L32.1143 8.75363C32.247 8.88835 32.4614 8.89119 32.5974 8.76004C33.6029 7.83652 34.9107 7.32482 36.2672 7.32425ZM38.7916 10.1178C38.7935 10.2232 38.7565 10.3247 38.6892 10.3985L36.5125 12.8533C36.4487 12.9254 36.3617 12.966 36.2709 12.966C36.1802 12.966 36.0932 12.9254 36.0294 12.8533L33.8523 10.3985C33.7851 10.3247 33.7481 10.2231 33.7501 10.1177C33.7521 10.0124 33.7929 9.9126 33.8629 9.84199C35.253 8.52809 37.2889 8.52809 38.679 9.84199C38.7489 9.91266 38.7897 10.0125 38.7916 10.1178Z" fill="var(--fill-0, black)"/>
<path id="Cellular Connection" fill-rule="evenodd" clip-rule="evenodd" d="M20.2 1.68187C20.2 1.04883 19.7224 0.535645 19.1333 0.535645H18.0667C17.4776 0.535645 17 1.04883 17 1.68187V11.6158C17 12.2489 17.4776 12.7621 18.0667 12.7621H19.1333C19.7224 12.7621 20.2 12.2489 20.2 11.6158V1.68187ZM12.7659 2.98093H13.8326C14.4217 2.98093 14.8992 3.50643 14.8992 4.15466V11.5883C14.8992 12.2366 14.4217 12.7621 13.8326 12.7621H12.7659C12.1768 12.7621 11.6992 12.2366 11.6992 11.5883V4.15466C11.6992 3.50643 12.1768 2.98093 12.7659 2.98093ZM8.43411 5.62997H7.36745C6.77834 5.62997 6.30078 6.16216 6.30078 6.81865V11.5734C6.30078 12.2299 6.77834 12.762 7.36745 12.762H8.43411C9.02322 12.762 9.50078 12.2299 9.50078 11.5734V6.81865C9.50078 6.16216 9.02322 5.62997 8.43411 5.62997ZM3.13333 8.07527H2.06667C1.47756 8.07527 1 8.59985 1 9.24697V11.5904C1 12.2375 1.47756 12.7621 2.06667 12.7621H3.13333C3.72244 12.7621 4.2 12.2375 4.2 11.5904V9.24697C4.2 8.59985 3.72244 8.07527 3.13333 8.07527Z" fill="var(--fill-0, black)"/>
</g>
</svg>
